<svg width="500" height="500" viewBox="0 0 500 500" fill="none" xmlns="http://www.w3.org/2000/svg">
<rect width="500" height="500" fill="#00040F"/>
<path d="M98.0127 49.5526C97.7656 49.3056 97.365 49.3056 97.118 49.5526L93.0917 53.5789C92.8446 53.826 92.8446 54.2266 93.0917 54.4737C93.3387 54.7207 93.7393 54.7207 93.9864 54.4737L97.5653 50.8947L101.144 54.4737C101.391 54.7207 101.792 54.7207 102.039 54.4737C102.286 54.2266 102.286 53.826 102.039 53.5789L98.0127 49.5526ZM96.9327 50L96.9327 366.336L98.198 366.336L98.198 50L96.9327 50Z" fill="white"/>
<path d="M425.947 367.627C426.194 367.38 426.194 366.979 425.947 366.732L421.921 362.706C421.674 362.459 421.273 362.459 421.026 362.706C420.779 362.953 420.779 363.353 421.026 363.6L424.605 367.179L421.026 370.758C420.779 371.005 420.779 371.406 421.026 371.653C421.273 371.9 421.674 371.9 421.921 371.653L425.947 367.627ZM425.5 366.547L96.9326 366.547V367.812L425.5 367.812V366.547Z" fill="white"/>
<rect x="118.443" y="234.318" width="27.4158" height="132.017" fill="#CAFDDF"/>
<rect width="26.994" height="132.017" transform="matrix(-1 0 0 1 361.389 234.318)" fill="#9FBAFF"/>
<rect x="154.295" y="155.867" width="27.4158" height="210.469" fill="#CAFDDF"/>
<rect width="27.4158" height="210.469" transform="matrix(-1 0 0 1 325.96 155.867)" fill="#9FBAFF"/>
<rect x="190.146" y="96.3959" width="27.4158" height="269.94" fill="#CAFDDF"/>
<rect width="27.8375" height="269.94" transform="matrix(-1 0 0 1 290.108 96.3959)" fill="#9FBAFF"/>
<rect width="27.4158" height="306.635" transform="matrix(-1 0 0 1 253.835 59.7009)" fill="#CAFDDF"/>
<rect width="27.4158" height="164.495" transform="matrix(-1 0 0 1 253.835 59.7009)" fill="#9FBAFF"/>
<rect width="27.8375" height="160.277" transform="matrix(-1 0 0 1 290.108 206.059)" fill="#FFB9B9"/>
<rect width="27.8375" height="215.952" transform="matrix(-1 0 0 1 217.562 150.384)" fill="#FFB9B9"/>
<rect width="26.994" height="77.1859" transform="matrix(-1 0 0 1 361.389 289.15)" fill="#FFB9B9"/>
<rect width="27.4158" height="134.126" transform="matrix(-1 0 0 1 181.711 232.209)" fill="#FFB9B9"/>
<line x1="130.886" y1="368.445" x2="130.886" y2="383.207" stroke="white" stroke-width="0.421781"/>
<line x1="168.003" y1="368.445" x2="168.003" y2="383.207" stroke="white" stroke-width="0.421781"/>
<line x1="203.854" y1="368.445" x2="203.854" y2="383.207" stroke="white" stroke-width="0.421781"/>
<line x1="241.393" y1="368.445" x2="241.393" y2="383.207" stroke="white" stroke-width="0.421781"/>
<line x1="278.509" y1="368.445" x2="278.509" y2="383.207" stroke="white" stroke-width="0.421781"/>
<line x1="313.517" y1="368.866" x2="313.517" y2="383.629" stroke="white" stroke-width="0.421781"/>
<line x1="350.634" y1="368.445" x2="350.634" y2="383.207" stroke="white" stroke-width="0.421781"/>
<path d="M121.693 393.207H122.877V390.686H124.659C126.066 390.686 126.866 389.715 126.866 388.571C126.866 387.427 126.076 386.455 124.659 386.455H121.693V393.207ZM125.651 388.571C125.651 389.219 125.165 389.644 124.497 389.644H122.877V387.498H124.497C125.165 387.498 125.651 387.923 125.651 388.571ZM127.639 393.207H132.528V392.164H129.532C131.344 390.798 132.488 389.684 132.488 388.439C132.488 387.093 131.344 386.354 130.038 386.354C129.097 386.354 128.145 386.718 127.548 387.437L128.236 388.216C128.661 387.731 129.269 387.407 130.058 387.407C130.676 387.407 131.283 387.731 131.283 388.439C131.283 389.411 130.261 390.292 127.639 392.276V393.207ZM133.568 389.836C133.568 391.537 134.378 393.328 136.271 393.328C138.164 393.328 138.974 391.537 138.974 389.836C138.974 388.136 138.164 386.354 136.271 386.354C134.378 386.354 133.568 388.136 133.568 389.836ZM137.769 389.836C137.769 391.122 137.374 392.276 136.271 392.276C135.168 392.276 134.773 391.122 134.773 389.836C134.773 388.551 135.168 387.407 136.271 387.407C137.374 387.407 137.769 388.551 137.769 389.836Z" fill="white"/>
<path d="M85.077 127.733V123.572H84.0344V126.548H78.3252V127.733H85.077ZM79.3779 122.007C79.3779 121.643 79.0844 121.349 78.72 121.349C78.3555 121.349 78.062 121.643 78.062 122.007C78.062 122.361 78.3555 122.665 78.72 122.665C79.0844 122.665 79.3779 122.361 79.3779 122.007ZM85.077 122.533V121.471H80.1878V122.533H85.077ZM86.9396 115.597H80.1878V116.66H80.8559C80.37 117.025 80.0663 117.591 80.0663 118.229C80.0663 119.495 81.0178 120.395 82.6273 120.395C84.2369 120.395 85.1985 119.495 85.1985 118.229C85.1985 117.612 84.9252 117.055 84.3988 116.66H86.9396V115.597ZM83.5991 116.66C83.9534 116.893 84.2571 117.419 84.2571 117.915C84.2571 118.756 83.5789 119.292 82.6273 119.292C81.6859 119.292 81.0077 118.756 81.0077 117.915C81.0077 117.419 81.3013 116.893 81.6657 116.66H83.5991ZM85.077 110.92V109.857H80.1878V110.92H83.6194C83.9534 111.173 84.2571 111.638 84.2571 112.175C84.2571 112.772 84.0243 113.157 83.2651 113.157H80.1878V114.22H83.6497C84.6519 114.22 85.1985 113.704 85.1985 112.651C85.1985 111.881 84.824 111.274 84.4292 110.92H85.077ZM79.3779 107.95C79.3779 107.586 79.0844 107.292 78.72 107.292C78.3555 107.292 78.062 107.586 78.062 107.95C78.062 108.304 78.3555 108.608 78.72 108.608C79.0844 108.608 79.3779 108.304 79.3779 107.95ZM85.077 108.476V107.413H80.1878V108.476H85.077ZM85.077 102.593V101.53H78.3252V102.593H80.866C80.3497 102.988 80.0663 103.555 80.0663 104.162C80.0663 105.427 81.0583 106.338 82.6375 106.338C84.247 106.338 85.1985 105.417 85.1985 104.162C85.1985 103.534 84.8948 102.967 84.4089 102.593H85.077ZM83.6092 102.593C83.9737 102.836 84.2571 103.352 84.2571 103.858C84.2571 104.698 83.5789 105.235 82.6375 105.235C81.6859 105.235 81.0077 104.698 81.0077 103.858C81.0077 103.352 81.3013 102.836 81.6657 102.593H83.6092ZM79.3779 99.6263C79.3779 99.2619 79.0844 98.9684 78.72 98.9684C78.3555 98.9684 78.062 99.2619 78.062 99.6263C78.062 99.9806 78.3555 100.284 78.72 100.284C79.0844 100.284 79.3779 99.9806 79.3779 99.6263ZM85.077 100.153V99.0898H80.1878V100.153H85.077ZM85.1985 96.2432C85.1985 95.7472 85.0669 95.4334 84.8847 95.2411L84.085 95.4941C84.1761 95.5751 84.2571 95.7674 84.2571 95.9699C84.2571 96.2736 84.0142 96.4355 83.6801 96.4355H81.119V95.4435H80.1878V96.4355H78.8516V97.4984H80.1878V98.3083H81.119V97.4984H83.9433C84.7531 97.4984 85.1985 97.0632 85.1985 96.2432ZM86.0387 94.5291L86.9902 94.691C87.0307 94.5392 87.0611 94.2456 87.0611 94.0938C87.051 93.3346 86.7878 92.7475 85.9577 92.4134L80.1878 90.0548V91.1987L83.8522 92.626L80.1878 94.0533V95.187L85.1378 93.1827L85.6945 93.4257C86.0185 93.5674 86.1197 93.7901 86.1197 94.1242C86.1197 94.2456 86.0893 94.4177 86.0387 94.5291ZM87.0915 85.5222L86.5853 84.8642C85.3402 85.5323 84.2065 85.8967 82.6172 85.8967C81.0279 85.8967 79.8942 85.5323 78.639 84.8642L78.143 85.5222C79.3172 86.4737 80.9875 87.0507 82.6172 87.0507C84.247 87.0507 85.9274 86.4737 87.0915 85.5222ZM85.077 83.9596V79.7991H84.0344V82.7752H78.3252V83.9596H85.077ZM82.6172 78.2341C84.2065 78.2341 85.3402 78.5986 86.5853 79.2768L87.0915 78.6188C85.9274 77.6571 84.247 77.0801 82.6172 77.0801C80.9875 77.0801 79.3172 77.6571 78.143 78.6188L78.639 79.2768C79.8942 78.5986 81.0279 78.2341 82.6172 78.2341Z" fill="white"/>
<path d="M382.354 380.177H383.538V377.656H385.319C386.727 377.656 387.526 376.685 387.526 375.541C387.526 374.397 386.737 373.425 385.319 373.425H382.354V380.177ZM386.312 375.541C386.312 376.189 385.826 376.614 385.158 376.614H383.538V374.468H385.158C385.826 374.468 386.312 374.893 386.312 375.541ZM388.482 380.177H389.545V376.847C389.757 376.502 390.355 376.199 390.8 376.199C390.932 376.199 391.043 376.209 391.134 376.229V375.176C390.496 375.176 389.909 375.541 389.545 376.006V375.288H388.482V380.177ZM392.518 374.478C392.882 374.478 393.176 374.184 393.176 373.82C393.176 373.455 392.882 373.162 392.518 373.162C392.163 373.162 391.86 373.455 391.86 373.82C391.86 374.184 392.163 374.478 392.518 374.478ZM391.991 380.177H393.054V375.288H391.991V380.177ZM394.129 377.727C394.129 379.215 395.172 380.298 396.66 380.298C397.611 380.298 398.188 379.893 398.533 379.428L397.834 378.78C397.561 379.155 397.186 379.357 396.71 379.357C395.82 379.357 395.233 378.679 395.233 377.727C395.233 376.776 395.82 376.108 396.71 376.108C397.186 376.108 397.561 376.3 397.834 376.685L398.533 376.037C398.188 375.571 397.611 375.166 396.66 375.166C395.172 375.166 394.129 376.249 394.129 377.727ZM399.161 377.727C399.161 379.276 400.254 380.298 401.722 380.298C402.501 380.298 403.22 380.055 403.706 379.59L403.22 378.891C402.876 379.235 402.309 379.428 401.833 379.428C400.912 379.428 400.355 378.82 400.274 378.082H404.05V377.828C404.05 376.29 403.109 375.166 401.641 375.166C400.193 375.166 399.161 376.31 399.161 377.727ZM401.641 376.037C402.603 376.037 402.997 376.755 403.018 377.332H400.264C400.315 376.735 400.73 376.037 401.641 376.037Z" fill="white"/>
<path d="M160.075 393.207H161.259V390.686H163.041C164.448 390.686 165.248 389.715 165.248 388.571C165.248 387.427 164.458 386.455 163.041 386.455H160.075V393.207ZM164.033 388.571C164.033 389.219 163.547 389.644 162.879 389.644H161.259V387.498H162.879C163.547 387.498 164.033 387.923 164.033 388.571ZM166.021 393.207H170.91V392.164H167.914C169.726 390.798 170.87 389.684 170.87 388.439C170.87 387.093 169.726 386.354 168.42 386.354C167.479 386.354 166.527 386.718 165.93 387.437L166.618 388.216C167.043 387.731 167.651 387.407 168.44 387.407C169.058 387.407 169.665 387.731 169.665 388.439C169.665 389.411 168.643 390.292 166.021 392.276V393.207ZM173.479 393.207H174.663V386.455H173.631L171.687 388.419L172.375 389.138L173.479 387.994V393.207Z" fill="white"/>
<path d="M197.719 393H198.903V390.479H200.685C202.092 390.479 202.891 389.508 202.891 388.364C202.891 387.22 202.102 386.248 200.685 386.248H197.719V393ZM201.677 388.364C201.677 389.012 201.191 389.437 200.523 389.437H198.903V387.291H200.523C201.191 387.291 201.677 387.716 201.677 388.364ZM203.665 393H208.554V391.957H205.558C207.37 390.591 208.514 389.477 208.514 388.232C208.514 386.886 207.37 386.147 206.064 386.147C205.122 386.147 204.171 386.511 203.574 387.23L204.262 388.009C204.687 387.524 205.295 387.2 206.084 387.2C206.702 387.2 207.309 387.524 207.309 388.232C207.309 389.204 206.287 390.085 203.665 392.069V393ZM209.685 393H214.574V391.957H211.578C213.39 390.591 214.534 389.477 214.534 388.232C214.534 386.886 213.39 386.147 212.084 386.147C211.143 386.147 210.191 386.511 209.594 387.23L210.282 388.009C210.707 387.524 211.315 387.2 212.104 387.2C212.722 387.2 213.329 387.524 213.329 388.232C213.329 389.204 212.307 390.085 209.685 392.069V393Z" fill="white"/>
<path d="M232.621 393.207H233.806V390.686H235.587C236.994 390.686 237.794 389.715 237.794 388.571C237.794 387.427 237.004 386.455 235.587 386.455H232.621V393.207ZM236.579 388.571C236.579 389.219 236.093 389.644 235.425 389.644H233.806V387.498H235.425C236.093 387.498 236.579 387.923 236.579 388.571ZM238.567 393.207H243.457V392.164H240.46C242.272 390.798 243.416 389.684 243.416 388.439C243.416 387.093 242.272 386.354 240.966 386.354C240.025 386.354 239.073 386.718 238.476 387.437L239.165 388.216C239.59 387.731 240.197 387.407 240.987 387.407C241.604 387.407 242.212 387.731 242.212 388.439C242.212 389.411 241.189 390.292 238.567 392.276V393.207ZM244.324 392.235C244.78 392.843 245.671 393.328 246.875 393.328C248.434 393.328 249.416 392.509 249.416 391.365C249.416 390.322 248.505 389.786 247.847 389.725C248.546 389.603 249.315 389.077 249.315 388.176C249.315 387.042 248.333 386.354 246.875 386.354C245.752 386.354 244.932 386.809 244.416 387.417L245.023 388.156C245.509 387.67 246.076 387.407 246.764 387.407C247.523 387.407 248.131 387.731 248.131 388.358C248.131 388.976 247.533 389.249 246.744 389.249C246.481 389.249 246.086 389.249 245.964 389.239V390.302C246.066 390.292 246.46 390.292 246.744 390.292C247.705 390.292 248.242 390.575 248.242 391.243C248.242 391.871 247.726 392.276 246.835 392.276C246.116 392.276 245.397 391.962 244.962 391.456L244.324 392.235Z" fill="white"/>
<path d="M270.16 393.207H271.344V390.686H273.126C274.533 390.686 275.333 389.715 275.333 388.571C275.333 387.427 274.543 386.455 273.126 386.455H270.16V393.207ZM274.118 388.571C274.118 389.219 273.632 389.644 272.964 389.644H271.344V387.498H272.964C273.632 387.498 274.118 387.923 274.118 388.571ZM276.106 393.207H280.995V392.164H277.999C279.811 390.798 280.955 389.684 280.955 388.439C280.955 387.093 279.811 386.354 278.505 386.354C277.564 386.354 276.612 386.718 276.015 387.437L276.703 388.216C277.128 387.731 277.736 387.407 278.525 387.407C279.143 387.407 279.75 387.731 279.75 388.439C279.75 389.411 278.728 390.292 276.106 392.276V393.207ZM285.122 393.207H286.307V391.678H287.208V390.636H286.307V386.455H284.677L281.903 390.727V391.678H285.122V393.207ZM285.122 387.518V390.636H283.068L285.122 387.518Z" fill="white"/>
<path d="M304.324 393.207H305.508V390.686H307.29C308.697 390.686 309.497 389.715 309.497 388.571C309.497 387.427 308.707 386.455 307.29 386.455H304.324V393.207ZM308.282 388.571C308.282 389.219 307.796 389.644 307.128 389.644H305.508V387.498H307.128C307.796 387.498 308.282 387.923 308.282 388.571ZM310.27 393.207H315.159V392.164H312.163C313.975 390.798 315.119 389.684 315.119 388.439C315.119 387.093 313.975 386.354 312.669 386.354C311.728 386.354 310.776 386.718 310.179 387.437L310.867 388.216C311.293 387.731 311.9 387.407 312.689 387.407C313.307 387.407 313.914 387.731 313.914 388.439C313.914 389.411 312.892 390.292 310.27 392.276V393.207ZM316.351 392.286C316.898 392.934 317.697 393.328 318.862 393.328C320.37 393.328 321.433 392.448 321.433 391.041C321.433 389.664 320.41 388.864 319.277 388.864C318.629 388.864 318.072 389.128 317.748 389.451V387.498H320.987V386.455H316.564V390.231L317.404 390.474C317.829 390.069 318.305 389.887 318.882 389.887C319.712 389.887 320.238 390.363 320.238 391.091C320.238 391.749 319.702 392.276 318.851 392.276C318.092 392.276 317.485 391.992 317.029 391.476L316.351 392.286Z" fill="white"/>
<path d="M342.706 393.207H343.89V390.686H345.672C347.079 390.686 347.879 389.715 347.879 388.571C347.879 387.427 347.089 386.455 345.672 386.455H342.706V393.207ZM346.664 388.571C346.664 389.219 346.178 389.644 345.51 389.644H343.89V387.498H345.51C346.178 387.498 346.664 387.923 346.664 388.571ZM348.652 393.207H353.541V392.164H350.545C352.357 390.798 353.501 389.684 353.501 388.439C353.501 387.093 352.357 386.354 351.051 386.354C350.11 386.354 349.158 386.718 348.561 387.437L349.249 388.216C349.675 387.731 350.282 387.407 351.071 387.407C351.689 387.407 352.296 387.731 352.296 388.439C352.296 389.411 351.274 390.292 348.652 392.276V393.207ZM354.581 389.846C354.581 391.719 355.381 393.328 357.365 393.328C358.873 393.328 359.855 392.316 359.855 391.061C359.855 389.624 358.813 388.885 357.598 388.885C356.798 388.885 356.09 389.37 355.786 389.826C355.776 389.765 355.776 389.705 355.776 389.634C355.776 388.449 356.434 387.407 357.557 387.407C358.205 387.407 358.59 387.629 358.944 388.004L359.501 387.103C359.045 386.658 358.398 386.354 357.557 386.354C355.604 386.354 354.581 387.893 354.581 389.846ZM358.661 391.101C358.661 391.648 358.195 392.276 357.304 392.276C356.262 392.276 355.867 391.425 355.796 390.697C356.14 390.211 356.697 389.897 357.274 389.897C358.013 389.897 358.661 390.271 358.661 391.101Z" fill="white"/>
<path d="M233.777 412H235.073L232.421 405.248H230.943L228.291 412H229.586L230.082 410.704H233.281L233.777 412ZM231.682 406.25L232.947 409.662H230.416L231.682 406.25ZM235.476 409.55C235.476 411.038 236.519 412.121 238.007 412.121C238.958 412.121 239.535 411.717 239.88 411.251L239.181 410.603C238.908 410.978 238.533 411.18 238.058 411.18C237.167 411.18 236.58 410.502 236.58 409.55C236.58 408.599 237.167 407.931 238.058 407.931C238.533 407.931 238.908 408.123 239.181 408.508L239.88 407.86C239.535 407.394 238.958 406.989 238.007 406.989C236.519 406.989 235.476 408.072 235.476 409.55ZM242.279 412.121C242.775 412.121 243.089 411.99 243.282 411.808L243.029 411.008C242.948 411.099 242.755 411.18 242.553 411.18C242.249 411.18 242.087 410.937 242.087 410.603V408.042H243.079V407.111H242.087V405.775H241.024V407.111H240.214V408.042H241.024V410.866C241.024 411.676 241.46 412.121 242.279 412.121ZM244.571 406.301C244.935 406.301 245.229 406.007 245.229 405.643C245.229 405.278 244.935 404.985 244.571 404.985C244.216 404.985 243.913 405.278 243.913 405.643C243.913 406.007 244.216 406.301 244.571 406.301ZM244.044 412H245.107V407.111H244.044V412ZM247.772 412H248.915L250.91 407.111H249.766L248.338 410.775L246.911 407.111H245.777L247.772 412ZM251.273 409.55C251.273 411.099 252.367 412.121 253.834 412.121C254.614 412.121 255.333 411.879 255.818 411.413L255.333 410.714C254.988 411.059 254.421 411.251 253.946 411.251C253.025 411.251 252.468 410.644 252.387 409.905H256.163V409.652C256.163 408.113 255.221 406.989 253.753 406.989C252.306 406.989 251.273 408.133 251.273 409.55ZM253.753 407.86C254.715 407.86 255.11 408.579 255.13 409.156H252.377C252.427 408.558 252.842 407.86 253.753 407.86ZM236.057 423H237.12V422.332C237.494 422.818 238.051 423.121 238.689 423.121C239.934 423.121 240.855 422.17 240.855 420.56C240.855 418.981 239.944 417.989 238.689 417.989C238.071 417.989 237.504 418.273 237.12 418.789V416.248H236.057V423ZM237.12 421.532V419.599C237.352 419.234 237.879 418.931 238.375 418.931C239.225 418.931 239.762 419.609 239.762 420.56C239.762 421.512 239.225 422.18 238.375 422.18C237.879 422.18 237.352 421.897 237.12 421.532ZM242.465 417.301C242.829 417.301 243.123 417.007 243.123 416.643C243.123 416.278 242.829 415.985 242.465 415.985C242.111 415.985 241.807 416.278 241.807 416.643C241.807 417.007 242.111 417.301 242.465 417.301ZM241.939 423H243.001V418.111H241.939V423ZM247.68 423H248.743V419.558C248.743 418.556 248.217 417.989 247.164 417.989C246.395 417.989 245.767 418.394 245.443 418.779V418.111H244.38V423H245.443V419.589C245.686 419.255 246.152 418.931 246.698 418.931C247.296 418.931 247.68 419.184 247.68 419.943V423Z" fill="white"/>
<path d="M152.746 434H153.634V429.718H155.168V428.936H151.213V429.718H152.746V434ZM156.752 434.091C157.929 434.091 158.643 433.218 158.643 432.163C158.643 431.115 157.929 430.242 156.752 430.242C155.591 430.242 154.87 431.115 154.87 432.163C154.87 433.218 155.591 434.091 156.752 434.091ZM156.752 433.385C156.077 433.385 155.697 432.816 155.697 432.163C155.697 431.517 156.077 430.948 156.752 430.948C157.436 430.948 157.815 431.517 157.815 432.163C157.815 432.816 157.436 433.385 156.752 433.385ZM161.879 434H162.881L161.325 431.996L162.851 430.333H161.864L160.247 432.102V428.936H159.449V434H160.247V433.013L160.755 432.489L161.879 434ZM163.025 432.163C163.025 433.324 163.845 434.091 164.946 434.091C165.53 434.091 166.069 433.909 166.434 433.56L166.069 433.036C165.811 433.294 165.386 433.438 165.029 433.438C164.338 433.438 163.921 432.983 163.86 432.428H166.692V432.239C166.692 431.085 165.986 430.242 164.885 430.242C163.799 430.242 163.025 431.1 163.025 432.163ZM164.885 430.895C165.606 430.895 165.902 431.434 165.918 431.867H163.853C163.891 431.419 164.202 430.895 164.885 430.895ZM169.954 434H170.751V431.419C170.751 430.667 170.356 430.242 169.567 430.242C168.99 430.242 168.519 430.546 168.276 430.834V430.333H167.479V434H168.276V431.441C168.458 431.191 168.807 430.948 169.217 430.948C169.665 430.948 169.954 431.138 169.954 431.707V434ZM175.194 434H176.082V431.897L178.041 428.936H177.024L175.642 431.107L174.245 428.936H173.228L175.194 431.897V434ZM152.746 444H153.634V439.718H155.168V438.936H151.213V439.718H152.746V444ZM156.752 444.091C157.929 444.091 158.643 443.218 158.643 442.163C158.643 441.115 157.929 440.242 156.752 440.242C155.591 440.242 154.87 441.115 154.87 442.163C154.87 443.218 155.591 444.091 156.752 444.091ZM156.752 443.385C156.077 443.385 155.697 442.816 155.697 442.163C155.697 441.517 156.077 440.948 156.752 440.948C157.436 440.948 157.815 441.517 157.815 442.163C157.815 442.816 157.436 443.385 156.752 443.385ZM161.879 444H162.881L161.325 441.996L162.851 440.333H161.864L160.247 442.102V438.936H159.449V444H160.247V443.013L160.755 442.489L161.879 444ZM163.025 442.163C163.025 443.324 163.845 444.091 164.946 444.091C165.53 444.091 166.069 443.909 166.434 443.56L166.069 443.036C165.811 443.294 165.386 443.438 165.029 443.438C164.338 443.438 163.921 442.983 163.86 442.428H166.692V442.239C166.692 441.085 165.986 440.242 164.885 440.242C163.799 440.242 163.025 441.1 163.025 442.163ZM164.885 440.895C165.606 440.895 165.902 441.434 165.918 441.867H163.853C163.891 441.419 164.202 440.895 164.885 440.895ZM169.954 444H170.751V441.419C170.751 440.667 170.356 440.242 169.567 440.242C168.99 440.242 168.519 440.546 168.276 440.834V440.333H167.479V444H168.276V441.441C168.458 441.191 168.807 440.948 169.217 440.948C169.665 440.948 169.954 441.138 169.954 441.707V444ZM173.554 444H177.35V443.218H174.708L177.297 439.657V438.936H173.554V439.718H176.143L173.554 443.279V444Z" fill="white"/>
<path d="M180.054 445L179.417 444.009L178.839 445H178.173L179.101 443.515L178.16 442.056H178.839L179.476 443.043L180.05 442.056H180.716L179.793 443.536L180.733 445H180.054Z" fill="white"/>
<path d="M301.746 434H302.634V429.718H304.168V428.936H300.213V429.718H301.746V434ZM305.752 434.091C306.929 434.091 307.643 433.218 307.643 432.163C307.643 431.115 306.929 430.242 305.752 430.242C304.591 430.242 303.87 431.115 303.87 432.163C303.87 433.218 304.591 434.091 305.752 434.091ZM305.752 433.385C305.077 433.385 304.697 432.816 304.697 432.163C304.697 431.517 305.077 430.948 305.752 430.948C306.436 430.948 306.815 431.517 306.815 432.163C306.815 432.816 306.436 433.385 305.752 433.385ZM310.879 434H311.881L310.325 431.996L311.851 430.333H310.864L309.247 432.102V428.936H308.449V434H309.247V433.013L309.755 432.489L310.879 434ZM312.025 432.163C312.025 433.324 312.845 434.091 313.946 434.091C314.53 434.091 315.069 433.909 315.434 433.56L315.069 433.036C314.811 433.294 314.386 433.438 314.029 433.438C313.338 433.438 312.921 432.983 312.86 432.428H315.692V432.239C315.692 431.085 314.986 430.242 313.885 430.242C312.799 430.242 312.025 431.1 312.025 432.163ZM313.885 430.895C314.606 430.895 314.902 431.434 314.918 431.867H312.853C312.891 431.419 313.202 430.895 313.885 430.895ZM318.954 434H319.751V431.419C319.751 430.667 319.356 430.242 318.567 430.242C317.99 430.242 317.519 430.546 317.276 430.834V430.333H316.479V434H317.276V431.441C317.458 431.191 317.807 430.948 318.217 430.948C318.665 430.948 318.954 431.138 318.954 431.707V434ZM326.145 434H327.208L325.318 431.396L327.094 428.936H326.024L324.725 430.796L323.42 428.936H322.357L324.141 431.404L322.243 434H323.306L324.725 432.018L326.145 434ZM301.746 444H302.634V439.718H304.168V438.936H300.213V439.718H301.746V444ZM305.752 444.091C306.929 444.091 307.643 443.218 307.643 442.163C307.643 441.115 306.929 440.242 305.752 440.242C304.591 440.242 303.87 441.115 303.87 442.163C303.87 443.218 304.591 444.091 305.752 444.091ZM305.752 443.385C305.077 443.385 304.697 442.816 304.697 442.163C304.697 441.517 305.077 440.948 305.752 440.948C306.436 440.948 306.815 441.517 306.815 442.163C306.815 442.816 306.436 443.385 305.752 443.385ZM310.879 444H311.881L310.325 441.996L311.851 440.333H310.864L309.247 442.102V438.936H308.449V444H309.247V443.013L309.755 442.489L310.879 444ZM312.025 442.163C312.025 443.324 312.845 444.091 313.946 444.091C314.53 444.091 315.069 443.909 315.434 443.56L315.069 443.036C314.811 443.294 314.386 443.438 314.029 443.438C313.338 443.438 312.921 442.983 312.86 442.428H315.692V442.239C315.692 441.085 314.986 440.242 313.885 440.242C312.799 440.242 312.025 441.1 312.025 442.163ZM313.885 440.895C314.606 440.895 314.902 441.434 314.918 441.867H312.853C312.891 441.419 313.202 440.895 313.885 440.895ZM318.954 444H319.751V441.419C319.751 440.667 319.356 440.242 318.567 440.242C317.99 440.242 317.519 440.546 317.276 440.834V440.333H316.479V444H317.276V441.441C317.458 441.191 317.807 440.948 318.217 440.948C318.665 440.948 318.954 441.138 318.954 441.707V444ZM322.554 444H326.35V443.218H323.708L326.297 439.657V438.936H322.554V439.718H325.143L322.554 443.279V444Z" fill="white"/>
<path d="M329.632 442.056L328.637 443.975V445H328.046V443.975L327.046 442.056H327.713L328.345 443.401L328.974 442.056H329.632Z" fill="white"/>
<path d="M164.304 421.953C163.246 418.539 161.804 416.327 159.977 415.317C158.15 414.307 156.082 413.802 153.774 413.802C152.476 413.802 151.033 413.923 149.447 414.163C147.86 414.355 146.321 414.572 144.831 414.812C143.244 415.101 141.585 415.365 139.854 415.606C138.075 415.798 136.44 415.894 134.949 415.894C131.488 415.894 128.963 415.029 127.376 413.298C125.79 411.567 124.996 409.09 124.996 405.869V403.633H126.295V405.869C126.295 408.658 126.968 410.797 128.314 412.288C129.66 413.73 131.872 414.452 134.949 414.452C137.594 414.452 141.128 414.067 145.552 413.298C149.206 412.673 151.947 412.36 153.774 412.36C156.611 412.36 159.039 413.081 161.059 414.524C163.03 415.918 164.376 418.106 165.098 421.087H165.242C165.963 418.106 167.333 415.918 169.353 414.524C171.324 413.081 173.728 412.36 176.565 412.36C178.393 412.36 181.133 412.673 184.788 413.298C189.211 414.067 192.745 414.452 195.39 414.452C198.467 414.452 200.679 413.73 202.025 412.288C203.372 410.797 204.045 408.658 204.045 405.869V403.633H205.343V405.869C205.343 409.09 204.55 411.567 202.963 413.298C201.376 415.029 198.852 415.894 195.39 415.894C193.899 415.894 192.288 415.798 190.558 415.606C188.778 415.365 187.096 415.101 185.509 414.812C184.018 414.572 182.48 414.355 180.893 414.163C179.306 413.923 177.864 413.802 176.565 413.802C174.257 413.802 172.19 414.307 170.363 415.317C168.535 416.327 167.093 418.539 166.035 421.953H164.304Z" fill="white"/>
<path d="M314.036 421.953C312.979 418.539 311.536 416.327 309.709 415.317C307.882 414.307 305.814 413.802 303.506 413.802C302.208 413.802 300.766 413.923 299.179 414.163C297.592 414.355 296.053 414.572 294.563 414.812C292.976 415.101 291.317 415.365 289.586 415.606C287.807 415.798 286.172 415.894 284.682 415.894C281.22 415.894 278.695 415.029 277.109 413.298C275.522 411.567 274.729 409.09 274.729 405.869V403.633H276.027V405.869C276.027 408.658 276.7 410.797 278.046 412.288C279.393 413.73 281.604 414.452 284.682 414.452C287.326 414.452 290.86 414.067 295.284 413.298C298.938 412.673 301.679 412.36 303.506 412.36C306.343 412.36 308.771 413.081 310.791 414.524C312.762 415.918 314.109 418.106 314.83 421.087H314.974C315.695 418.106 317.066 415.918 319.085 414.524C321.057 413.081 323.461 412.36 326.298 412.36C328.125 412.36 330.866 412.673 334.52 413.298C338.943 414.067 342.478 414.452 345.122 414.452C348.199 414.452 350.411 413.73 351.758 412.288C353.104 410.797 353.777 408.658 353.777 405.869V403.633H355.075V405.869C355.075 409.09 354.282 411.567 352.695 413.298C351.108 415.029 348.584 415.894 345.122 415.894C343.632 415.894 342.021 415.798 340.29 415.606C338.511 415.365 336.828 415.101 335.241 414.812C333.75 414.572 332.212 414.355 330.625 414.163C329.038 413.923 327.596 413.802 326.298 413.802C323.99 413.802 321.922 414.307 320.095 415.317C318.268 416.327 316.825 418.539 315.767 421.953H314.036Z" fill="white"/>
<path d="M311.931 454.091C312.993 454.091 313.616 453.56 314.003 452.952L313.244 452.565C313.001 452.99 312.515 453.302 311.931 453.302C310.966 453.302 310.222 452.535 310.222 451.472C310.222 450.409 310.966 449.642 311.931 449.642C312.515 449.642 313.001 449.961 313.244 450.379L314.003 449.991C313.624 449.384 312.993 448.853 311.931 448.853C310.473 448.853 309.311 449.915 309.311 451.472C309.311 453.028 310.473 454.091 311.931 454.091ZM314.395 451.001H317.766V450.485H314.395V451.001ZM314.395 452.444H317.766V451.935H314.395V452.444ZM318.297 451.472C318.297 452.747 318.905 454.091 320.324 454.091C321.744 454.091 322.351 452.747 322.351 451.472C322.351 450.196 321.744 448.86 320.324 448.86C318.905 448.86 318.297 450.196 318.297 451.472ZM321.448 451.472C321.448 452.436 321.152 453.302 320.324 453.302C319.497 453.302 319.201 452.436 319.201 451.472C319.201 450.508 319.497 449.65 320.324 449.65C321.152 449.65 321.448 450.508 321.448 451.472Z" fill="white"/>
<path d="M161.931 455.091C162.993 455.091 163.616 454.56 164.003 453.952L163.244 453.565C163.001 453.99 162.515 454.302 161.931 454.302C160.966 454.302 160.222 453.535 160.222 452.472C160.222 451.409 160.966 450.642 161.931 450.642C162.515 450.642 163.001 450.961 163.244 451.379L164.003 450.991C163.624 450.384 162.993 449.853 161.931 449.853C160.473 449.853 159.311 450.915 159.311 452.472C159.311 454.028 160.473 455.091 161.931 455.091ZM164.395 452.001H167.766V451.485H164.395V452.001ZM164.395 453.444H167.766V452.935H164.395V453.444ZM169.444 455H170.332V449.936H169.557L168.1 451.409L168.616 451.948L169.444 451.09V455Z" fill="white"/>
</svg>
