<svg width="501" height="500" viewBox="0 0 501 500" fill="none" xmlns="http://www.w3.org/2000/svg">
<rect width="500" height="500" transform="translate(0.5)" fill="black"/>
<path d="M137.459 77.288C140.819 77.288 142.787 75.608 144.011 73.688L141.611 72.464C140.843 73.808 139.307 74.792 137.459 74.792C134.411 74.792 132.059 72.368 132.059 69.008C132.059 65.648 134.411 63.224 137.459 63.224C139.307 63.224 140.843 64.232 141.611 65.552L144.011 64.328C142.811 62.408 140.819 60.728 137.459 60.728C132.851 60.728 129.179 64.088 129.179 69.008C129.179 73.928 132.851 77.288 137.459 77.288ZM151.419 77.288C155.139 77.288 157.395 74.528 157.395 71.192C157.395 67.88 155.139 65.12 151.419 65.12C147.747 65.12 145.467 67.88 145.467 71.192C145.467 74.528 147.747 77.288 151.419 77.288ZM151.419 75.056C149.283 75.056 148.083 73.256 148.083 71.192C148.083 69.152 149.283 67.352 151.419 67.352C153.579 67.352 154.779 69.152 154.779 71.192C154.779 73.256 153.579 75.056 151.419 75.056ZM167.769 77H170.289V68.84C170.289 66.464 169.041 65.12 166.545 65.12C164.721 65.12 163.233 66.08 162.465 66.992V65.408H159.945V77H162.465V68.912C163.041 68.12 164.145 67.352 165.441 67.352C166.857 67.352 167.769 67.952 167.769 69.752V77ZM172.842 71.192C172.842 74.72 175.314 77.288 178.842 77.288C181.098 77.288 182.466 76.328 183.282 75.224L181.626 73.688C180.978 74.576 180.09 75.056 178.962 75.056C176.85 75.056 175.458 73.448 175.458 71.192C175.458 68.936 176.85 67.352 178.962 67.352C180.09 67.352 180.978 67.808 181.626 68.72L183.282 67.184C182.466 66.08 181.098 65.12 178.842 65.12C175.314 65.12 172.842 67.688 172.842 71.192ZM184.771 71.192C184.771 74.864 187.363 77.288 190.843 77.288C192.691 77.288 194.395 76.712 195.547 75.608L194.395 73.952C193.579 74.768 192.235 75.224 191.107 75.224C188.923 75.224 187.603 73.784 187.411 72.032H196.363V71.432C196.363 67.784 194.131 65.12 190.651 65.12C187.219 65.12 184.771 67.832 184.771 71.192ZM190.651 67.184C192.931 67.184 193.867 68.888 193.915 70.256H187.387C187.507 68.84 188.491 67.184 190.651 67.184ZM206.675 77H209.195V68.84C209.195 66.464 207.947 65.12 205.451 65.12C203.627 65.12 202.139 66.08 201.371 66.992V65.408H198.851V77H201.371V68.912C201.947 68.12 203.051 67.352 204.347 67.352C205.763 67.352 206.675 67.952 206.675 69.752V77ZM215.948 77.288C217.124 77.288 217.868 76.976 218.324 76.544L217.724 74.648C217.532 74.864 217.076 75.056 216.596 75.056C215.876 75.056 215.492 74.48 215.492 73.688V67.616H217.844V65.408H215.492V62.24H212.972V65.408H211.052V67.616H212.972V74.312C212.972 76.232 214.004 77.288 215.948 77.288ZM220.132 77H222.652V69.104C223.156 68.288 224.572 67.568 225.628 67.568C225.94 67.568 226.204 67.592 226.42 67.64V65.144C224.908 65.144 223.516 66.008 222.652 67.112V65.408H220.132V77ZM235.532 77H238.052V69.32C238.052 66.2 235.796 65.12 233.228 65.12C231.38 65.12 229.7 65.72 228.356 66.992L229.388 68.744C230.396 67.76 231.524 67.28 232.82 67.28C234.428 67.28 235.532 68.096 235.532 69.44V71.168C234.692 70.184 233.348 69.68 231.788 69.68C229.892 69.68 227.756 70.784 227.756 73.448C227.756 76.016 229.892 77.288 231.788 77.288C233.324 77.288 234.668 76.736 235.532 75.752V77ZM235.532 74.36C234.956 75.152 233.876 75.56 232.772 75.56C231.356 75.56 230.3 74.744 230.3 73.496C230.3 72.224 231.356 71.408 232.772 71.408C233.876 71.408 234.956 71.816 235.532 72.608V74.36ZM244.8 77.288C245.976 77.288 246.72 76.976 247.176 76.544L246.576 74.648C246.384 74.864 245.928 75.056 245.448 75.056C244.728 75.056 244.344 74.48 244.344 73.688V67.616H246.696V65.408H244.344V62.24H241.824V65.408H239.904V67.616H241.824V74.312C241.824 76.232 242.855 77.288 244.8 77.288ZM248.264 71.192C248.264 74.864 250.856 77.288 254.336 77.288C256.184 77.288 257.888 76.712 259.04 75.608L257.888 73.952C257.072 74.768 255.728 75.224 254.6 75.224C252.416 75.224 251.096 73.784 250.904 72.032H259.856V71.432C259.856 67.784 257.624 65.12 254.144 65.12C250.712 65.12 248.264 67.832 248.264 71.192ZM254.144 67.184C256.424 67.184 257.36 68.888 257.408 70.256H250.88C251 68.84 251.984 67.184 254.144 67.184ZM270.503 77H273.023V60.992H270.503V67.016C269.567 65.792 268.223 65.12 266.783 65.12C263.783 65.12 261.623 67.472 261.623 71.216C261.623 75.032 263.807 77.288 266.783 77.288C268.271 77.288 269.615 76.568 270.503 75.416V77ZM270.503 73.52C269.927 74.384 268.703 75.056 267.503 75.056C265.511 75.056 264.239 73.448 264.239 71.216C264.239 68.96 265.511 67.352 267.503 67.352C268.703 67.352 269.927 68.048 270.503 68.912V73.52ZM282.524 77H292.388V74.528H285.332V60.992H282.524V77ZM296.099 63.488C296.963 63.488 297.659 62.792 297.659 61.928C297.659 61.064 296.963 60.368 296.099 60.368C295.259 60.368 294.539 61.064 294.539 61.928C294.539 62.792 295.259 63.488 296.099 63.488ZM294.851 77H297.371V65.408H294.851V77ZM311.296 81.416V65.408H308.776V66.992C307.912 65.84 306.568 65.12 305.056 65.12C302.056 65.12 299.92 67.376 299.92 71.192C299.92 75.008 302.056 77.288 305.056 77.288C306.52 77.288 307.84 76.64 308.776 75.392V81.416H311.296ZM308.776 73.496C308.224 74.336 306.976 75.056 305.8 75.056C303.808 75.056 302.536 73.448 302.536 71.192C302.536 68.96 303.808 67.352 305.8 67.352C306.976 67.352 308.224 68.048 308.776 68.912V73.496ZM322.386 77H324.906V65.408H322.386V73.544C321.786 74.336 320.682 75.056 319.41 75.056C317.994 75.056 317.082 74.504 317.082 72.704V65.408H314.562V73.616C314.562 75.992 315.786 77.288 318.282 77.288C320.106 77.288 321.546 76.4 322.386 75.464V77ZM329.427 63.488C330.291 63.488 330.987 62.792 330.987 61.928C330.987 61.064 330.291 60.368 329.427 60.368C328.587 60.368 327.867 61.064 327.867 61.928C327.867 62.792 328.587 63.488 329.427 63.488ZM328.179 77H330.699V65.408H328.179V77ZM342.128 77H344.648V60.992H342.128V67.016C341.192 65.792 339.848 65.12 338.408 65.12C335.408 65.12 333.248 67.472 333.248 71.216C333.248 75.032 335.432 77.288 338.408 77.288C339.896 77.288 341.24 76.568 342.128 75.416V77ZM342.128 73.52C341.552 74.384 340.328 75.056 339.128 75.056C337.136 75.056 335.864 73.448 335.864 71.216C335.864 68.96 337.136 67.352 339.128 67.352C340.328 67.352 341.552 68.048 342.128 68.912V73.52ZM349.161 63.488C350.025 63.488 350.721 62.792 350.721 61.928C350.721 61.064 350.025 60.368 349.161 60.368C348.321 60.368 347.601 61.064 347.601 61.928C347.601 62.792 348.321 63.488 349.161 63.488ZM347.913 77H350.433V65.408H347.913V77ZM357.182 77.288C358.358 77.288 359.102 76.976 359.558 76.544L358.958 74.648C358.766 74.864 358.31 75.056 357.83 75.056C357.11 75.056 356.726 74.48 356.726 73.688V67.616H359.078V65.408H356.726V62.24H354.206V65.408H352.286V67.616H354.206V74.312C354.206 76.232 355.238 77.288 357.182 77.288ZM361.246 79.28L360.862 81.536C361.222 81.632 361.918 81.704 362.278 81.704C364.078 81.68 365.47 81.056 366.262 79.088L371.854 65.408H369.142L365.758 74.096L362.374 65.408H359.686L364.438 77.144L363.862 78.464C363.526 79.232 362.998 79.472 362.206 79.472C361.918 79.472 361.51 79.4 361.246 79.28Z" fill="white"/>
<path d="M219.14 126V125.034H220.484L222.808 118.72H221.394V117.754H224.11L226.644 125.034H227.974V126H224.572V125.034H225.454L225.006 123.76H221.982L221.506 125.034H222.402V126H219.14ZM222.332 122.794H224.67L223.564 119.168L222.332 122.794ZM232.844 120.834C232.629 120.759 232.424 120.708 232.228 120.68C232.041 120.652 231.826 120.638 231.584 120.638C230.958 120.638 230.459 120.834 230.086 121.226C229.712 121.618 229.526 122.206 229.526 122.99C229.526 123.755 229.726 124.329 230.128 124.712C230.538 125.095 231.028 125.286 231.598 125.286C231.887 125.286 232.181 125.239 232.48 125.146C232.778 125.053 233.072 124.908 233.362 124.712L233.824 125.398C233.59 125.566 233.366 125.711 233.152 125.832C232.937 125.953 232.699 126.047 232.438 126.112C232.176 126.177 231.85 126.21 231.458 126.21C230.86 126.21 230.328 126.084 229.862 125.832C229.404 125.571 229.045 125.197 228.784 124.712C228.532 124.227 228.406 123.653 228.406 122.99C228.406 122.29 228.546 121.702 228.826 121.226C229.115 120.741 229.502 120.377 229.988 120.134C230.473 119.882 231.01 119.756 231.598 119.756C231.971 119.756 232.316 119.798 232.634 119.882C232.951 119.957 233.315 120.055 233.726 120.176L233.922 121.688L233.026 121.884L232.844 120.834ZM237.866 126.21C237.53 126.21 237.208 126.145 236.9 126.014C236.602 125.883 236.359 125.65 236.172 125.314C235.986 124.978 235.892 124.511 235.892 123.914V120.862H234.73V119.994H235.892V118.636L236.956 118.384V119.994H238.706V120.862H236.956V123.298C236.956 123.923 237.017 124.427 237.138 124.81C237.26 125.193 237.526 125.384 237.936 125.384C238.226 125.384 238.552 125.3 238.916 125.132L239.126 125.916C238.93 125.991 238.725 126.056 238.51 126.112C238.296 126.177 238.081 126.21 237.866 126.21ZM239.998 119.994H242.266V125.132H243.428V126H239.998V125.132H241.16V120.862H239.998V119.994ZM241.566 117.012C241.827 117.012 242.037 117.091 242.196 117.25C242.355 117.409 242.434 117.619 242.434 117.88C242.434 118.141 242.355 118.351 242.196 118.51C242.037 118.669 241.827 118.748 241.566 118.748C241.305 118.748 241.095 118.669 240.936 118.51C240.787 118.351 240.712 118.141 240.712 117.88C240.712 117.619 240.787 117.409 240.936 117.25C241.095 117.091 241.305 117.012 241.566 117.012ZM243.501 119.994H246.441V120.862H245.797L247.057 123.844L247.561 125.034L248.065 123.844L249.325 120.862H248.709V119.994H251.509V120.862H250.417L248.121 126H246.889L244.663 120.862H243.501V119.994ZM257.277 125.286C256.904 125.603 256.521 125.837 256.129 125.986C255.747 126.135 255.308 126.21 254.813 126.21C254.16 126.21 253.591 126.084 253.105 125.832C252.62 125.571 252.242 125.202 251.971 124.726C251.71 124.241 251.579 123.662 251.579 122.99C251.579 122.346 251.705 121.786 251.957 121.31C252.209 120.825 252.564 120.451 253.021 120.19C253.488 119.919 254.025 119.784 254.631 119.784C255.201 119.784 255.686 119.905 256.087 120.148C256.489 120.391 256.797 120.731 257.011 121.17C257.235 121.599 257.347 122.113 257.347 122.71C257.347 122.794 257.343 122.883 257.333 122.976C257.333 123.06 257.329 123.149 257.319 123.242L252.657 123.27C252.685 123.746 252.797 124.133 252.993 124.432C253.199 124.731 253.455 124.95 253.763 125.09C254.081 125.23 254.417 125.3 254.771 125.3C255.182 125.3 255.551 125.244 255.877 125.132C256.204 125.02 256.503 124.852 256.773 124.628L257.277 125.286ZM256.269 122.388C256.26 121.865 256.106 121.445 255.807 121.128C255.518 120.801 255.131 120.638 254.645 120.638C254.151 120.638 253.717 120.801 253.343 121.128C252.97 121.445 252.746 121.87 252.671 122.402L256.269 122.388ZM261.942 126V125.034H263.272V118.72H261.942V117.754H265.512C266.51 117.754 267.271 117.941 267.794 118.314C268.326 118.678 268.592 119.21 268.592 119.91C268.592 120.283 268.489 120.638 268.284 120.974C268.088 121.301 267.812 121.557 267.458 121.744C267.85 121.884 268.181 122.127 268.452 122.472C268.722 122.817 268.858 123.242 268.858 123.746C268.858 124.399 268.634 124.941 268.186 125.37C267.738 125.79 267.042 126 266.1 126H261.942ZM264.378 125.02H266.044C266.566 125.02 266.968 124.903 267.248 124.67C267.528 124.427 267.668 124.068 267.668 123.592C267.668 123.163 267.532 122.831 267.262 122.598C267 122.365 266.622 122.248 266.128 122.248H264.392L264.378 125.02ZM264.392 121.408H266.142C266.552 121.408 266.865 121.287 267.08 121.044C267.294 120.801 267.402 120.475 267.402 120.064C267.402 119.168 266.823 118.72 265.666 118.72H264.392V121.408ZM269.707 119.994H271.975V125.132H273.137V126H269.707V125.132H270.869V120.862H269.707V119.994ZM271.275 117.012C271.536 117.012 271.746 117.091 271.905 117.25C272.064 117.409 272.143 117.619 272.143 117.88C272.143 118.141 272.064 118.351 271.905 118.51C271.746 118.669 271.536 118.748 271.275 118.748C271.014 118.748 270.804 118.669 270.645 118.51C270.496 118.351 270.421 118.141 270.421 117.88C270.421 117.619 270.496 117.409 270.645 117.25C270.804 117.091 271.014 117.012 271.275 117.012ZM274.043 126V125.132H275.219V121.114L273.875 120.652L274.169 119.784L276.031 120.428C276.358 120.213 276.703 120.055 277.067 119.952C277.44 119.84 277.804 119.784 278.159 119.784C278.607 119.784 279.018 119.873 279.391 120.05C279.774 120.218 280.077 120.479 280.301 120.834C280.534 121.179 280.651 121.618 280.651 122.15V125.132H281.827V126H278.929V125.132H279.559V122.374C279.559 121.777 279.405 121.347 279.097 121.086C278.798 120.815 278.425 120.68 277.977 120.68C277.716 120.68 277.44 120.722 277.151 120.806C276.871 120.881 276.591 120.997 276.311 121.156V125.132H276.941V126H274.043Z" fill="white"/>
<rect x="50.355" y="354.185" width="31.9444" height="46.2963" fill="#7C7B7B" fill-opacity="0.58"/>
<rect x="87.2995" y="354.185" width="31.9444" height="46.2963" fill="#7C7B7B" fill-opacity="0.58"/>
<rect x="124.244" y="354.185" width="31.9444" height="46.2963" fill="#7C7B7B" fill-opacity="0.58"/>
<rect x="161.188" y="354.185" width="31.9444" height="46.2963" fill="#7C7B7B" fill-opacity="0.58"/>
<rect x="198.133" y="354.185" width="31.9444" height="46.2963" fill="#7C7B7B" fill-opacity="0.58"/>
<rect x="235.077" y="144" width="31.9444" height="85.6481" fill="#1CC660"/>
<rect x="235.077" y="229.648" width="31.9444" height="170.833" fill="#3645FF"/>
<rect x="272.022" y="354.185" width="31.9444" height="46.2963" fill="#7C7B7B" fill-opacity="0.58"/>
<rect x="308.966" y="354.185" width="31.9444" height="46.2963" fill="#7C7B7B" fill-opacity="0.58"/>
<rect x="345.911" y="354.185" width="31.9444" height="46.2963" fill="#7C7B7B" fill-opacity="0.58"/>
<rect x="382.855" y="354.185" width="31.9444" height="46.2963" fill="#7C7B7B" fill-opacity="0.58"/>
<rect x="419.799" y="354.185" width="31.9444" height="46.2963" fill="#7C7B7B" fill-opacity="0.58"/>
<path d="M121.703 435.531H127.433V434.452H122.913V425.807H121.703V435.531ZM129.135 435.531H130.345V431.668H133.042C134.966 431.668 136.089 430.327 136.089 428.738C136.089 427.148 134.995 425.807 133.042 425.807H129.135V435.531ZM134.835 428.738C134.835 429.831 134.048 430.589 132.896 430.589H130.345V426.886H132.896C134.048 426.886 134.835 427.644 134.835 428.738ZM137.035 434.598C137.749 435.356 138.726 435.706 139.878 435.706C141.7 435.706 142.648 434.758 142.648 433.577C142.648 432.018 141.234 431.668 140.009 431.391C139.091 431.172 138.289 430.953 138.289 430.268C138.289 429.641 138.886 429.204 139.849 429.204C140.752 429.204 141.525 429.583 141.948 430.093L142.458 429.335C141.89 428.767 141.044 428.315 139.849 428.315C138.172 428.315 137.225 429.248 137.225 430.341C137.225 431.799 138.58 432.12 139.776 432.397C140.723 432.63 141.583 432.878 141.583 433.65C141.583 434.336 141 434.817 139.921 434.817C138.959 434.817 138.07 434.35 137.604 433.811L137.035 434.598ZM144.205 429.189C144.205 429.627 144.57 429.991 145.007 429.991C145.444 429.991 145.809 429.627 145.809 429.189C145.809 428.752 145.444 428.388 145.007 428.388C144.57 428.388 144.205 428.752 144.205 429.189ZM144.205 434.875C144.205 435.312 144.57 435.677 145.007 435.677C145.444 435.677 145.809 435.312 145.809 434.875C145.809 434.438 145.444 434.073 145.007 434.073C144.57 434.073 144.205 434.438 144.205 434.875ZM159.103 435.531H164.832V434.452H160.313V425.807H159.103V435.531ZM167.03 427.309C167.438 427.309 167.773 426.974 167.773 426.565C167.773 426.157 167.438 425.836 167.03 425.836C166.636 425.836 166.301 426.157 166.301 426.565C166.301 426.974 166.636 427.309 167.03 427.309ZM166.49 435.531H167.584V428.49H166.49V435.531ZM175.946 438.213V428.49H174.853V429.539C174.342 428.825 173.482 428.315 172.491 428.315C170.639 428.315 169.357 429.714 169.357 432.003C169.357 434.277 170.639 435.706 172.491 435.706C173.438 435.706 174.284 435.254 174.853 434.467V438.213H175.946ZM174.853 433.592C174.474 434.204 173.628 434.729 172.753 434.729C171.339 434.729 170.494 433.563 170.494 432.003C170.494 430.443 171.339 429.291 172.753 429.291C173.628 429.291 174.474 429.802 174.853 430.414V433.592ZM182.888 435.531H183.982V428.49H182.888V433.665C182.48 434.233 181.664 434.729 180.804 434.729C179.856 434.729 179.229 434.365 179.229 433.126V428.49H178.136V433.461C178.136 434.992 178.908 435.706 180.381 435.706C181.431 435.706 182.349 435.152 182.888 434.54V435.531ZM186.705 427.309C187.113 427.309 187.448 426.974 187.448 426.565C187.448 426.157 187.113 425.836 186.705 425.836C186.311 425.836 185.976 426.157 185.976 426.565C185.976 426.974 186.311 427.309 186.705 427.309ZM186.165 435.531H187.259V428.49H186.165V435.531ZM194.542 435.531H195.635V425.807H194.542V429.554C193.973 428.781 193.113 428.315 192.166 428.315C190.314 428.315 189.031 429.773 189.031 432.018C189.031 434.306 190.329 435.706 192.166 435.706C193.157 435.706 194.017 435.196 194.542 434.481V435.531ZM194.542 433.621C194.148 434.233 193.303 434.729 192.428 434.729C191.014 434.729 190.169 433.577 190.169 432.018C190.169 430.458 191.014 429.291 192.428 429.291C193.303 429.291 194.148 429.816 194.542 430.429V433.621ZM198.364 427.309C198.772 427.309 199.108 426.974 199.108 426.565C199.108 426.157 198.772 425.836 198.364 425.836C197.971 425.836 197.635 426.157 197.635 426.565C197.635 426.974 197.971 427.309 198.364 427.309ZM197.825 435.531H198.918V428.49H197.825V435.531ZM202.878 435.706C203.519 435.706 203.913 435.516 204.19 435.254L203.869 434.438C203.723 434.598 203.432 434.729 203.126 434.729C202.645 434.729 202.411 434.35 202.411 433.825V429.452H203.84V428.49H202.411V426.565H201.318V428.49H200.152V429.452H201.318V434.059C201.318 435.108 201.843 435.706 202.878 435.706ZM205.166 437.295L204.991 438.286C205.195 438.345 205.559 438.388 205.793 438.388C206.726 438.374 207.44 437.98 207.863 436.96L211.391 428.49H210.195L207.863 434.263L205.516 428.49H204.335L207.28 435.604L206.813 436.668C206.565 437.251 206.245 437.412 205.764 437.412C205.589 437.412 205.326 437.368 205.166 437.295ZM215.881 432.003C215.881 434.102 217.296 435.706 219.395 435.706C220.678 435.706 221.436 435.181 221.975 434.481L221.246 433.811C220.78 434.438 220.182 434.729 219.453 434.729C217.952 434.729 217.019 433.563 217.019 432.003C217.019 430.443 217.952 429.291 219.453 429.291C220.182 429.291 220.78 429.568 221.246 430.21L221.975 429.539C221.436 428.84 220.678 428.315 219.395 428.315C217.296 428.315 215.881 429.918 215.881 432.003ZM226.583 435.706C228.726 435.706 230.068 434.044 230.068 432.003C230.068 429.962 228.726 428.315 226.583 428.315C224.441 428.315 223.099 429.962 223.099 432.003C223.099 434.044 224.441 435.706 226.583 435.706ZM226.583 434.729C225.082 434.729 224.236 433.446 224.236 432.003C224.236 430.574 225.082 429.291 226.583 429.291C228.085 429.291 228.916 430.574 228.916 432.003C228.916 433.446 228.085 434.729 226.583 434.729ZM236.603 435.531H237.696V430.589C237.696 429.058 236.923 428.315 235.451 428.315C234.401 428.315 233.439 428.927 232.943 429.51V428.49H231.85V435.531H232.943V430.385C233.352 429.816 234.168 429.291 235.028 429.291C235.976 429.291 236.603 429.685 236.603 430.924V435.531ZM239.471 432.003C239.471 434.102 240.885 435.706 242.985 435.706C244.267 435.706 245.026 435.181 245.565 434.481L244.836 433.811C244.37 434.438 243.772 434.729 243.043 434.729C241.541 434.729 240.608 433.563 240.608 432.003C240.608 430.443 241.541 429.291 243.043 429.291C243.772 429.291 244.37 429.568 244.836 430.21L245.565 429.539C245.026 428.84 244.267 428.315 242.985 428.315C240.885 428.315 239.471 429.918 239.471 432.003ZM246.689 432.003C246.689 434.204 248.191 435.706 250.275 435.706C251.427 435.706 252.375 435.327 253.074 434.627L252.55 433.913C251.996 434.481 251.179 434.802 250.377 434.802C248.861 434.802 247.928 433.694 247.841 432.367H253.541V432.09C253.541 429.977 252.287 428.315 250.159 428.315C248.147 428.315 246.689 429.962 246.689 432.003ZM250.144 429.219C251.748 429.219 252.448 430.516 252.462 431.566H247.841C247.899 430.487 248.643 429.219 250.144 429.219ZM260.064 435.531H261.158V430.589C261.158 429.058 260.385 428.315 258.913 428.315C257.863 428.315 256.901 428.927 256.405 429.51V428.49H255.312V435.531H256.405V430.385C256.813 429.816 257.63 429.291 258.49 429.291C259.437 429.291 260.064 429.685 260.064 430.924V435.531ZM265.12 435.706C265.761 435.706 266.155 435.516 266.432 435.254L266.111 434.438C265.965 434.598 265.674 434.729 265.368 434.729C264.886 434.729 264.653 434.35 264.653 433.825V429.452H266.082V428.49H264.653V426.565H263.56V428.49H262.394V429.452H263.56V434.059C263.56 435.108 264.085 435.706 265.12 435.706ZM267.626 435.531H268.72V430.545C269.04 429.977 269.959 429.423 270.629 429.423C270.804 429.423 270.936 429.437 271.067 429.466V428.344C270.105 428.344 269.288 428.883 268.72 429.627V428.49H267.626V435.531ZM276.841 435.531H277.934V430.691C277.934 428.985 276.695 428.315 275.208 428.315C274.056 428.315 273.153 428.694 272.395 429.481L272.905 430.239C273.532 429.568 274.217 429.262 275.062 429.262C276.083 429.262 276.841 429.802 276.841 430.749V432.018C276.272 431.362 275.471 431.055 274.508 431.055C273.313 431.055 272.045 431.799 272.045 433.373C272.045 434.904 273.313 435.706 274.508 435.706C275.456 435.706 276.258 435.371 276.841 434.729V435.531ZM276.841 434.044C276.418 434.627 275.675 434.919 274.902 434.919C273.882 434.919 273.167 434.277 273.167 433.388C273.167 432.484 273.882 431.843 274.902 431.843C275.675 431.843 276.418 432.134 276.841 432.717V434.044ZM281.905 435.706C282.546 435.706 282.94 435.516 283.217 435.254L282.896 434.438C282.75 434.598 282.458 434.729 282.152 434.729C281.671 434.729 281.438 434.35 281.438 433.825V429.452H282.867V428.49H281.438V426.565H280.345V428.49H279.178V429.452H280.345V434.059C280.345 435.108 280.869 435.706 281.905 435.706ZM284.003 432.003C284.003 434.204 285.505 435.706 287.589 435.706C288.741 435.706 289.688 435.327 290.388 434.627L289.863 433.913C289.309 434.481 288.493 434.802 287.691 434.802C286.175 434.802 285.242 433.694 285.155 432.367H290.855V432.09C290.855 429.977 289.601 428.315 287.473 428.315C285.461 428.315 284.003 429.962 284.003 432.003ZM287.458 429.219C289.062 429.219 289.761 430.516 289.776 431.566H285.155C285.213 430.487 285.956 429.219 287.458 429.219ZM297.728 435.531H298.821V425.807H297.728V429.554C297.159 428.781 296.299 428.315 295.352 428.315C293.5 428.315 292.217 429.773 292.217 432.018C292.217 434.306 293.515 435.706 295.352 435.706C296.343 435.706 297.203 435.196 297.728 434.481V435.531ZM297.728 433.621C297.334 434.233 296.489 434.729 295.614 434.729C294.2 434.729 293.355 433.577 293.355 432.018C293.355 430.458 294.2 429.291 295.614 429.291C296.489 429.291 297.334 429.816 297.728 430.429V433.621ZM304.099 429.641H310.528V428.869H304.099V429.641ZM304.099 432.455H310.528V431.697H304.099V432.455ZM322.742 435.531H323.952V425.807H322.742V429.991H317.056V425.807H315.846V435.531H317.056V431.07H322.742V435.531ZM326.72 427.309C327.129 427.309 327.464 426.974 327.464 426.565C327.464 426.157 327.129 425.836 326.72 425.836C326.327 425.836 325.991 426.157 325.991 426.565C325.991 426.974 326.327 427.309 326.72 427.309ZM326.181 435.531H327.274V428.49H326.181V435.531ZM329.441 437.339C330.272 438.155 331.088 438.388 332.284 438.388C334.004 438.388 335.637 437.659 335.637 435.327V428.49H334.543V429.554C333.975 428.781 333.129 428.315 332.182 428.315C330.33 428.315 329.047 429.714 329.047 431.974C329.047 434.248 330.345 435.618 332.182 435.618C333.173 435.618 334.033 435.079 334.543 434.365V435.371C334.543 436.916 333.45 437.484 332.284 437.484C331.278 437.484 330.578 437.222 329.995 436.522L329.441 437.339ZM334.543 433.505C334.164 434.117 333.319 434.656 332.444 434.656C331.03 434.656 330.184 433.519 330.184 431.974C330.184 430.414 331.03 429.291 332.444 429.291C333.319 429.291 334.164 429.816 334.543 430.429V433.505ZM342.594 435.531H343.687V430.56C343.687 429.029 342.914 428.315 341.442 428.315C340.378 428.315 339.415 428.927 338.92 429.51V425.807H337.826V435.531H338.92V430.385C339.343 429.816 340.159 429.291 341.004 429.291C341.952 429.291 342.594 429.656 342.594 430.895V435.531ZM345.462 432.003C345.462 434.204 346.963 435.706 349.048 435.706C350.2 435.706 351.147 435.327 351.847 434.627L351.322 433.913C350.768 434.481 349.952 434.802 349.15 434.802C347.634 434.802 346.701 433.694 346.614 432.367H352.314V432.09C352.314 429.977 351.06 428.315 348.931 428.315C346.92 428.315 345.462 429.962 345.462 432.003ZM348.917 429.219C350.52 429.219 351.22 430.516 351.235 431.566H346.614C346.672 430.487 347.415 429.219 348.917 429.219ZM354.085 435.531H355.178V430.545C355.499 429.977 356.417 429.423 357.088 429.423C357.263 429.423 357.394 429.437 357.525 429.466V428.344C356.563 428.344 355.746 428.883 355.178 429.627V428.49H354.085V435.531ZM369.682 435.531H371.023L367.101 425.807H365.6L361.693 435.531H363.034L363.894 433.373H368.821L369.682 435.531ZM366.358 426.886L368.457 432.295H364.244L366.358 426.886ZM372.294 435.531H373.504V431.668H376.201C378.125 431.668 379.248 430.327 379.248 428.738C379.248 427.148 378.154 425.807 376.201 425.807H372.294V435.531ZM377.994 428.738C377.994 429.831 377.207 430.589 376.055 430.589H373.504V426.886H376.055C377.207 426.886 377.994 427.644 377.994 428.738ZM386.477 435.531H387.906L385.282 431.566C386.608 431.449 387.804 430.487 387.804 428.738C387.804 426.944 386.536 425.807 384.757 425.807H380.85V435.531H382.06V431.668H383.999L386.477 435.531ZM386.55 428.738C386.55 429.831 385.763 430.604 384.611 430.604H382.06V426.886H384.611C385.763 426.886 386.55 427.644 386.55 428.738Z" fill="white"/>
<rect x="109.202" y="419.684" width="283.694" height="22.694" stroke="#AAB0FF" stroke-width="0.404949"/>
<path d="M55.592 464.63H56.802V455.985H59.8926V454.906H52.516V455.985H55.592V464.63ZM60.2184 464.63H61.3118V459.644C61.6325 459.076 62.5509 458.522 63.2215 458.522C63.3965 458.522 63.5277 458.536 63.6589 458.565V457.443C62.6967 457.443 61.8803 457.982 61.3118 458.726V457.589H60.2184V464.63ZM69.433 464.63H70.5263V459.79C70.5263 458.084 69.2872 457.414 67.8002 457.414C66.6485 457.414 65.7447 457.793 64.9866 458.58L65.4969 459.338C66.1237 458.667 66.8089 458.361 67.6544 458.361C68.6749 458.361 69.433 458.901 69.433 459.848V461.117C68.8644 460.461 68.0626 460.154 67.1005 460.154C65.905 460.154 64.6367 460.898 64.6367 462.472C64.6367 464.003 65.905 464.805 67.1005 464.805C68.048 464.805 68.8498 464.47 69.433 463.828V464.63ZM69.433 463.143C69.0102 463.726 68.2667 464.018 67.4941 464.018C66.4736 464.018 65.7593 463.376 65.7593 462.487C65.7593 461.583 66.4736 460.942 67.4941 460.942C68.2667 460.942 69.0102 461.233 69.433 461.816V463.143ZM77.8204 464.63H78.9138V454.906H77.8204V458.653C77.2519 457.88 76.3917 457.414 75.4442 457.414C73.5927 457.414 72.3099 458.871 72.3099 461.117C72.3099 463.405 73.6073 464.805 75.4442 464.805C76.4355 464.805 77.2956 464.295 77.8204 463.58V464.63ZM77.8204 462.72C77.4268 463.332 76.5813 463.828 75.7066 463.828C74.2925 463.828 73.447 462.676 73.447 461.117C73.447 459.557 74.2925 458.39 75.7066 458.39C76.5813 458.39 77.4268 458.915 77.8204 459.528V462.72ZM80.6952 461.102C80.6952 463.303 82.1967 464.805 84.2814 464.805C85.4331 464.805 86.3806 464.426 87.0804 463.726L86.5556 463.012C86.0016 463.58 85.1852 463.901 84.3834 463.901C82.8673 463.901 81.9343 462.793 81.8468 461.466H87.5469V461.189C87.5469 459.076 86.2932 457.414 84.1648 457.414C82.153 457.414 80.6952 459.061 80.6952 461.102ZM84.1502 458.318C85.7538 458.318 86.4535 459.615 86.4681 460.665H81.8468C81.9051 459.586 82.6486 458.318 84.1502 458.318ZM89.3178 464.63H90.4112V459.644C90.7319 459.076 91.6503 458.522 92.3209 458.522C92.4958 458.522 92.627 458.536 92.7582 458.565V457.443C91.7961 457.443 90.9797 457.982 90.4112 458.726V457.589H89.3178V464.63ZM93.5174 463.697C94.2318 464.455 95.2085 464.805 96.3602 464.805C98.1824 464.805 99.13 463.857 99.13 462.676C99.13 461.117 97.7159 460.767 96.4914 460.49C95.573 460.271 94.7712 460.052 94.7712 459.367C94.7712 458.74 95.3689 458.303 96.331 458.303C97.2349 458.303 98.0075 458.682 98.4303 459.192L98.9405 458.434C98.372 457.866 97.5264 457.414 96.331 457.414C94.6545 457.414 93.707 458.347 93.707 459.44C93.707 460.898 95.0627 461.219 96.2581 461.496C97.2057 461.729 98.0658 461.977 98.0658 462.749C98.0658 463.434 97.4827 463.916 96.4039 463.916C95.4418 463.916 94.5525 463.449 94.086 462.91L93.5174 463.697ZM100.688 458.288C100.688 458.726 101.052 459.09 101.489 459.09C101.927 459.09 102.291 458.726 102.291 458.288C102.291 457.851 101.927 457.487 101.489 457.487C101.052 457.487 100.688 457.851 100.688 458.288ZM100.688 463.974C100.688 464.411 101.052 464.776 101.489 464.776C101.927 464.776 102.291 464.411 102.291 463.974C102.291 463.537 101.927 463.172 101.489 463.172C101.052 463.172 100.688 463.537 100.688 463.974ZM112.631 464.805C114.395 464.805 115.561 463.988 116.378 462.88L115.343 462.312C114.789 463.143 113.783 463.726 112.631 463.726C110.547 463.726 108.928 462.079 108.928 459.775C108.928 457.457 110.547 455.825 112.631 455.825C113.783 455.825 114.789 456.422 115.343 457.239L116.363 456.67C115.591 455.577 114.395 454.746 112.631 454.746C109.876 454.746 107.675 456.787 107.675 459.775C107.675 462.764 109.876 464.805 112.631 464.805ZM120.952 464.805C123.095 464.805 124.436 463.143 124.436 461.102C124.436 459.061 123.095 457.414 120.952 457.414C118.809 457.414 117.468 459.061 117.468 461.102C117.468 463.143 118.809 464.805 120.952 464.805ZM120.952 463.828C119.451 463.828 118.605 462.545 118.605 461.102C118.605 459.673 119.451 458.39 120.952 458.39C122.454 458.39 123.285 459.673 123.285 461.102C123.285 462.545 122.454 463.828 120.952 463.828ZM130.971 464.63H132.065V459.688C132.065 458.157 131.292 457.414 129.82 457.414C128.77 457.414 127.808 458.026 127.312 458.609V457.589H126.219V464.63H127.312V459.484C127.72 458.915 128.537 458.39 129.397 458.39C130.344 458.39 130.971 458.784 130.971 460.023V464.63ZM133.84 461.102C133.84 463.201 135.254 464.805 137.353 464.805C138.636 464.805 139.394 464.28 139.934 463.58L139.205 462.91C138.738 463.537 138.14 463.828 137.412 463.828C135.91 463.828 134.977 462.662 134.977 461.102C134.977 459.542 135.91 458.39 137.412 458.39C138.14 458.39 138.738 458.667 139.205 459.309L139.934 458.638C139.394 457.938 138.636 457.414 137.353 457.414C135.254 457.414 133.84 459.017 133.84 461.102ZM141.058 461.102C141.058 463.303 142.559 464.805 144.644 464.805C145.796 464.805 146.743 464.426 147.443 463.726L146.918 463.012C146.364 463.58 145.548 463.901 144.746 463.901C143.23 463.901 142.297 462.793 142.21 461.466H147.91V461.189C147.91 459.076 146.656 457.414 144.527 457.414C142.516 457.414 141.058 459.061 141.058 461.102ZM144.513 458.318C146.116 458.318 146.816 459.615 146.831 460.665H142.21C142.268 459.586 143.011 458.318 144.513 458.318ZM154.433 464.63H155.526V459.688C155.526 458.157 154.754 457.414 153.281 457.414C152.232 457.414 151.269 458.026 150.774 458.609V457.589H149.68V464.63H150.774V459.484C151.182 458.915 151.998 458.39 152.859 458.39C153.806 458.39 154.433 458.784 154.433 460.023V464.63ZM159.488 464.805C160.13 464.805 160.523 464.615 160.8 464.353L160.48 463.537C160.334 463.697 160.042 463.828 159.736 463.828C159.255 463.828 159.022 463.449 159.022 462.924V458.551H160.451V457.589H159.022V455.664H157.929V457.589H156.762V458.551H157.929V463.157C157.929 464.207 158.453 464.805 159.488 464.805ZM161.995 464.63H163.088V459.644C163.409 459.076 164.328 458.522 164.998 458.522C165.173 458.522 165.304 458.536 165.435 458.565V457.443C164.473 457.443 163.657 457.982 163.088 458.726V457.589H161.995V464.63ZM171.21 464.63H172.303V459.79C172.303 458.084 171.064 457.414 169.577 457.414C168.425 457.414 167.521 457.793 166.763 458.58L167.273 459.338C167.9 458.667 168.585 458.361 169.431 458.361C170.451 458.361 171.21 458.901 171.21 459.848V461.117C170.641 460.461 169.839 460.154 168.877 460.154C167.682 460.154 166.413 460.898 166.413 462.472C166.413 464.003 167.682 464.805 168.877 464.805C169.825 464.805 170.626 464.47 171.21 463.828V464.63ZM171.21 463.143C170.787 463.726 170.043 464.018 169.271 464.018C168.25 464.018 167.536 463.376 167.536 462.487C167.536 461.583 168.25 460.942 169.271 460.942C170.043 460.942 170.787 461.233 171.21 461.816V463.143ZM176.273 464.805C176.915 464.805 177.308 464.615 177.585 464.353L177.265 463.537C177.119 463.697 176.827 463.828 176.521 463.828C176.04 463.828 175.807 463.449 175.807 462.924V458.551H177.235V457.589H175.807V455.664H174.713V457.589H173.547V458.551H174.713V463.157C174.713 464.207 175.238 464.805 176.273 464.805ZM178.372 461.102C178.372 463.303 179.873 464.805 181.958 464.805C183.11 464.805 184.057 464.426 184.757 463.726L184.232 463.012C183.678 463.58 182.862 463.901 182.06 463.901C180.544 463.901 179.611 462.793 179.523 461.466H185.223V461.189C185.223 459.076 183.97 457.414 181.841 457.414C179.829 457.414 178.372 459.061 178.372 461.102ZM181.827 458.318C183.43 458.318 184.13 459.615 184.145 460.665H179.523C179.582 459.586 180.325 458.318 181.827 458.318ZM192.097 464.63H193.19V454.906H192.097V458.653C191.528 457.88 190.668 457.414 189.72 457.414C187.869 457.414 186.586 458.871 186.586 461.117C186.586 463.405 187.884 464.805 189.72 464.805C190.712 464.805 191.572 464.295 192.097 463.58V464.63ZM192.097 462.72C191.703 463.332 190.857 463.828 189.983 463.828C188.569 463.828 187.723 462.676 187.723 461.117C187.723 459.557 188.569 458.39 189.983 458.39C190.857 458.39 191.703 458.915 192.097 459.528V462.72ZM199.138 464.63H200.231V454.906H199.138V464.63ZM202.952 456.408C203.36 456.408 203.695 456.072 203.695 455.664C203.695 455.256 203.36 454.935 202.952 454.935C202.558 454.935 202.223 455.256 202.223 455.664C202.223 456.072 202.558 456.408 202.952 456.408ZM202.412 464.63H203.506V457.589H202.412V464.63ZM211.868 467.312V457.589H210.775V458.638C210.264 457.924 209.404 457.414 208.413 457.414C206.561 457.414 205.279 458.813 205.279 461.102C205.279 463.376 206.561 464.805 208.413 464.805C209.36 464.805 210.206 464.353 210.775 463.566V467.312H211.868ZM210.775 462.691C210.396 463.303 209.55 463.828 208.675 463.828C207.261 463.828 206.416 462.662 206.416 461.102C206.416 459.542 207.261 458.39 208.675 458.39C209.55 458.39 210.396 458.901 210.775 459.513V462.691ZM218.81 464.63H219.904V457.589H218.81V462.764C218.402 463.332 217.586 463.828 216.726 463.828C215.778 463.828 215.151 463.464 215.151 462.224V457.589H214.058V462.56C214.058 464.09 214.83 464.805 216.303 464.805C217.353 464.805 218.271 464.251 218.81 463.639V464.63ZM222.627 456.408C223.035 456.408 223.37 456.072 223.37 455.664C223.37 455.256 223.035 454.935 222.627 454.935C222.233 454.935 221.898 455.256 221.898 455.664C221.898 456.072 222.233 456.408 222.627 456.408ZM222.087 464.63H223.181V457.589H222.087V464.63ZM230.464 464.63H231.557V454.906H230.464V458.653C229.895 457.88 229.035 457.414 228.088 457.414C226.236 457.414 224.953 458.871 224.953 461.117C224.953 463.405 226.251 464.805 228.088 464.805C229.079 464.805 229.939 464.295 230.464 463.58V464.63ZM230.464 462.72C230.07 463.332 229.225 463.828 228.35 463.828C226.936 463.828 226.091 462.676 226.091 461.117C226.091 459.557 226.936 458.39 228.35 458.39C229.225 458.39 230.07 458.915 230.464 459.528V462.72ZM234.286 456.408C234.694 456.408 235.03 456.072 235.03 455.664C235.03 455.256 234.694 454.935 234.286 454.935C233.893 454.935 233.557 455.256 233.557 455.664C233.557 456.072 233.893 456.408 234.286 456.408ZM233.747 464.63H234.84V457.589H233.747V464.63ZM238.8 464.805C239.441 464.805 239.835 464.615 240.112 464.353L239.791 463.537C239.645 463.697 239.354 463.828 239.048 463.828C238.567 463.828 238.333 463.449 238.333 462.924V458.551H239.762V457.589H238.333V455.664H237.24V457.589H236.074V458.551H237.24V463.157C237.24 464.207 237.765 464.805 238.8 464.805ZM241.088 466.394L240.913 467.385C241.117 467.443 241.481 467.487 241.715 467.487C242.648 467.473 243.362 467.079 243.785 466.059L247.313 457.589H246.117L243.785 463.362L241.438 457.589H240.257L243.202 464.703L242.735 465.767C242.487 466.35 242.167 466.51 241.685 466.51C241.511 466.51 241.248 466.467 241.088 466.394ZM251.541 458.74H257.97V457.968H251.541V458.74ZM251.541 461.554H257.97V460.796H251.541V461.554ZM262.895 459.775C262.895 462.137 263.945 464.805 266.612 464.805C269.266 464.805 270.33 462.137 270.33 459.775C270.33 457.399 269.266 454.76 266.612 454.76C263.945 454.76 262.895 457.399 262.895 459.775ZM269.091 459.775C269.091 461.714 268.464 463.726 266.612 463.726C264.761 463.726 264.134 461.714 264.134 459.775C264.134 457.836 264.761 455.839 266.612 455.839C268.464 455.839 269.091 457.836 269.091 459.775ZM271.53 457.18C271.53 458.536 272.477 459.557 273.862 459.557C275.262 459.557 276.224 458.536 276.224 457.18C276.224 455.81 275.262 454.76 273.862 454.76C272.477 454.76 271.53 455.81 271.53 457.18ZM272.944 464.63H273.731L279.956 454.906H279.154L272.944 464.63ZM275.349 457.18C275.349 458.099 274.737 458.828 273.862 458.828C273.002 458.828 272.404 458.099 272.404 457.18C272.404 456.218 273.002 455.504 273.862 455.504C274.737 455.504 275.349 456.218 275.349 457.18ZM276.603 462.429C276.603 463.784 277.55 464.805 278.935 464.805C280.32 464.805 281.282 463.784 281.282 462.429C281.282 461.058 280.32 460.009 278.935 460.009C277.55 460.009 276.603 461.058 276.603 462.429ZM280.422 462.429C280.422 463.347 279.81 464.076 278.935 464.076C278.061 464.076 277.463 463.347 277.463 462.429C277.463 461.466 278.061 460.752 278.935 460.752C279.81 460.752 280.422 461.466 280.422 462.429ZM285.98 463.697C286.695 464.455 287.671 464.805 288.823 464.805C290.645 464.805 291.593 463.857 291.593 462.676C291.593 461.117 290.179 460.767 288.954 460.49C288.036 460.271 287.234 460.052 287.234 459.367C287.234 458.74 287.832 458.303 288.794 458.303C289.698 458.303 290.47 458.682 290.893 459.192L291.403 458.434C290.835 457.866 289.989 457.414 288.794 457.414C287.118 457.414 286.17 458.347 286.17 459.44C286.17 460.898 287.526 461.219 288.721 461.496C289.669 461.729 290.529 461.977 290.529 462.749C290.529 463.434 289.946 463.916 288.867 463.916C287.905 463.916 287.015 463.449 286.549 462.91L285.98 463.697ZM293.369 464.63H294.463V454.906H293.369V464.63ZM297.183 456.408C297.591 456.408 297.927 456.072 297.927 455.664C297.927 455.256 297.591 454.935 297.183 454.935C296.789 454.935 296.454 455.256 296.454 455.664C296.454 456.072 296.789 456.408 297.183 456.408ZM296.644 464.63H297.737V457.589H296.644V464.63ZM301.011 467.312V463.566C301.58 464.353 302.425 464.805 303.388 464.805C305.239 464.805 306.522 463.376 306.522 461.102C306.522 458.813 305.239 457.414 303.388 457.414C302.396 457.414 301.522 457.924 301.011 458.638V457.589H299.918V467.312H301.011ZM305.37 461.102C305.37 462.662 304.525 463.828 303.111 463.828C302.251 463.828 301.39 463.303 301.011 462.691V459.513C301.39 458.901 302.251 458.39 303.111 458.39C304.525 458.39 305.37 459.542 305.37 461.102ZM309.382 467.312V463.566C309.951 464.353 310.797 464.805 311.759 464.805C313.61 464.805 314.893 463.376 314.893 461.102C314.893 458.813 313.61 457.414 311.759 457.414C310.767 457.414 309.893 457.924 309.382 458.638V457.589H308.289V467.312H309.382ZM313.741 461.102C313.741 462.662 312.896 463.828 311.482 463.828C310.622 463.828 309.761 463.303 309.382 462.691V459.513C309.761 458.901 310.622 458.39 311.482 458.39C312.896 458.39 313.741 459.542 313.741 461.102ZM321.063 464.63H322.156V459.79C322.156 458.084 320.917 457.414 319.43 457.414C318.278 457.414 317.374 457.793 316.616 458.58L317.127 459.338C317.754 458.667 318.439 458.361 319.284 458.361C320.305 458.361 321.063 458.901 321.063 459.848V461.117C320.494 460.461 319.692 460.154 318.73 460.154C317.535 460.154 316.267 460.898 316.267 462.472C316.267 464.003 317.535 464.805 318.73 464.805C319.678 464.805 320.48 464.47 321.063 463.828V464.63ZM321.063 463.143C320.64 463.726 319.897 464.018 319.124 464.018C318.103 464.018 317.389 463.376 317.389 462.487C317.389 461.583 318.103 460.942 319.124 460.942C319.897 460.942 320.64 461.233 321.063 461.816V463.143ZM324.333 466.438C325.164 467.254 325.981 467.487 327.176 467.487C328.896 467.487 330.529 466.758 330.529 464.426V457.589H329.436V458.653C328.867 457.88 328.022 457.414 327.074 457.414C325.223 457.414 323.94 458.813 323.94 461.073C323.94 463.347 325.237 464.717 327.074 464.717C328.065 464.717 328.925 464.178 329.436 463.464V464.47C329.436 466.015 328.342 466.583 327.176 466.583C326.17 466.583 325.47 466.321 324.887 465.621L324.333 466.438ZM329.436 462.604C329.057 463.216 328.211 463.755 327.336 463.755C325.922 463.755 325.077 462.618 325.077 461.073C325.077 459.513 325.922 458.39 327.336 458.39C328.211 458.39 329.057 458.915 329.436 459.528V462.604ZM332.311 461.102C332.311 463.303 333.812 464.805 335.897 464.805C337.049 464.805 337.996 464.426 338.696 463.726L338.171 463.012C337.617 463.58 336.801 463.901 335.999 463.901C334.483 463.901 333.55 462.793 333.462 461.466H339.162V461.189C339.162 459.076 337.909 457.414 335.78 457.414C333.769 457.414 332.311 459.061 332.311 461.102ZM335.766 458.318C337.369 458.318 338.069 459.615 338.084 460.665H333.462C333.521 459.586 334.264 458.318 335.766 458.318ZM349.094 464.63H350.188V459.79C350.188 458.084 348.949 457.414 347.462 457.414C346.31 457.414 345.406 457.793 344.648 458.58L345.158 459.338C345.785 458.667 346.47 458.361 347.316 458.361C348.336 458.361 349.094 458.901 349.094 459.848V461.117C348.526 460.461 347.724 460.154 346.762 460.154C345.566 460.154 344.298 460.898 344.298 462.472C344.298 464.003 345.566 464.805 346.762 464.805C347.709 464.805 348.511 464.47 349.094 463.828V464.63ZM349.094 463.143C348.672 463.726 347.928 464.018 347.155 464.018C346.135 464.018 345.421 463.376 345.421 462.487C345.421 461.583 346.135 460.942 347.155 460.942C347.928 460.942 348.672 461.233 349.094 461.816V463.143ZM357.132 464.63H358.225V459.688C358.225 458.157 357.453 457.414 355.98 457.414C354.931 457.414 353.969 458.026 353.473 458.609V457.589H352.379V464.63H353.473V459.484C353.881 458.915 354.697 458.39 355.558 458.39C356.505 458.39 357.132 458.784 357.132 460.023V464.63ZM365.511 464.63H366.605V454.906H365.511V458.653C364.943 457.88 364.083 457.414 363.135 457.414C361.284 457.414 360.001 458.871 360.001 461.117C360.001 463.405 361.298 464.805 363.135 464.805C364.126 464.805 364.986 464.295 365.511 463.58V464.63ZM365.511 462.72C365.118 463.332 364.272 463.828 363.397 463.828C361.983 463.828 361.138 462.676 361.138 461.117C361.138 459.557 361.983 458.39 363.397 458.39C364.272 458.39 365.118 458.915 365.511 459.528V462.72ZM373.646 467.312V463.566C374.215 464.353 375.06 464.805 376.022 464.805C377.874 464.805 379.156 463.376 379.156 461.102C379.156 458.813 377.874 457.414 376.022 457.414C375.031 457.414 374.156 457.924 373.646 458.638V457.589H372.553V467.312H373.646ZM378.005 461.102C378.005 462.662 377.159 463.828 375.745 463.828C374.885 463.828 374.025 463.303 373.646 462.691V459.513C374.025 458.901 374.885 458.39 375.745 458.39C377.159 458.39 378.005 459.542 378.005 461.102ZM380.924 464.63H382.017V459.644C382.338 459.076 383.256 458.522 383.927 458.522C384.102 458.522 384.233 458.536 384.364 458.565V457.443C383.402 457.443 382.586 457.982 382.017 458.726V457.589H380.924V464.63ZM386.275 456.408C386.683 456.408 387.018 456.072 387.018 455.664C387.018 455.256 386.683 454.935 386.275 454.935C385.881 454.935 385.546 455.256 385.546 455.664C385.546 456.072 385.881 456.408 386.275 456.408ZM385.736 464.63H386.829V457.589H385.736V464.63ZM388.602 461.102C388.602 463.201 390.016 464.805 392.115 464.805C393.398 464.805 394.156 464.28 394.695 463.58L393.967 462.91C393.5 463.537 392.902 463.828 392.173 463.828C390.672 463.828 389.739 462.662 389.739 461.102C389.739 459.542 390.672 458.39 392.173 458.39C392.902 458.39 393.5 458.667 393.967 459.309L394.695 458.638C394.156 457.938 393.398 457.414 392.115 457.414C390.016 457.414 388.602 459.017 388.602 461.102ZM395.82 461.102C395.82 463.303 397.321 464.805 399.406 464.805C400.558 464.805 401.505 464.426 402.205 463.726L401.68 463.012C401.126 463.58 400.31 463.901 399.508 463.901C397.992 463.901 397.059 462.793 396.971 461.466H402.671V461.189C402.671 459.076 401.418 457.414 399.289 457.414C397.277 457.414 395.82 459.061 395.82 461.102ZM399.275 458.318C400.878 458.318 401.578 459.615 401.593 460.665H396.971C397.03 459.586 397.773 458.318 399.275 458.318ZM408.74 456.408C409.148 456.408 409.484 456.072 409.484 455.664C409.484 455.256 409.148 454.935 408.74 454.935C408.347 454.935 408.011 455.256 408.011 455.664C408.011 456.072 408.347 456.408 408.74 456.408ZM408.201 464.63H409.294V457.589H408.201V464.63ZM419.974 464.63H421.068V459.542C421.068 458.128 420.382 457.414 419.099 457.414C418.079 457.414 417.131 458.084 416.738 458.726C416.534 457.997 415.921 457.414 414.843 457.414C413.808 457.414 412.86 458.157 412.568 458.609V457.589H411.475V464.63H412.568V459.484C412.948 458.915 413.706 458.39 414.42 458.39C415.338 458.39 415.717 458.959 415.717 459.848V464.63H416.811V459.469C417.175 458.915 417.948 458.39 418.677 458.39C419.581 458.39 419.974 458.959 419.974 459.848V464.63ZM424.342 467.312V463.566C424.911 464.353 425.756 464.805 426.718 464.805C428.57 464.805 429.853 463.376 429.853 461.102C429.853 458.813 428.57 457.414 426.718 457.414C425.727 457.414 424.852 457.924 424.342 458.638V457.589H423.249V467.312H424.342ZM428.701 461.102C428.701 462.662 427.855 463.828 426.441 463.828C425.581 463.828 424.721 463.303 424.342 462.691V459.513C424.721 458.901 425.581 458.39 426.441 458.39C427.855 458.39 428.701 459.542 428.701 461.102ZM436.022 464.63H437.116V459.79C437.116 458.084 435.877 457.414 434.39 457.414C433.238 457.414 432.334 457.793 431.576 458.58L432.086 459.338C432.713 458.667 433.398 458.361 434.244 458.361C435.264 458.361 436.022 458.901 436.022 459.848V461.117C435.454 460.461 434.652 460.154 433.69 460.154C432.494 460.154 431.226 460.898 431.226 462.472C431.226 464.003 432.494 464.805 433.69 464.805C434.637 464.805 435.439 464.47 436.022 463.828V464.63ZM436.022 463.143C435.6 463.726 434.856 464.018 434.083 464.018C433.063 464.018 432.349 463.376 432.349 462.487C432.349 461.583 433.063 460.942 434.083 460.942C434.856 460.942 435.6 461.233 436.022 461.816V463.143ZM438.899 461.102C438.899 463.201 440.313 464.805 442.413 464.805C443.695 464.805 444.454 464.28 444.993 463.58L444.264 462.91C443.798 463.537 443.2 463.828 442.471 463.828C440.969 463.828 440.036 462.662 440.036 461.102C440.036 459.542 440.969 458.39 442.471 458.39C443.2 458.39 443.798 458.667 444.264 459.309L444.993 458.638C444.454 457.938 443.695 457.414 442.413 457.414C440.313 457.414 438.899 459.017 438.899 461.102ZM448.304 464.805C448.945 464.805 449.339 464.615 449.616 464.353L449.295 463.537C449.149 463.697 448.858 463.828 448.552 463.828C448.071 463.828 447.837 463.449 447.837 462.924V458.551H449.266V457.589H447.837V455.664H446.744V457.589H445.578V458.551H446.744V463.157C446.744 464.207 447.269 464.805 448.304 464.805Z" fill="white"/>
<rect x="48.2025" y="448.783" width="405.694" height="22.694" stroke="#AAB0FF" stroke-width="0.404949"/>
</svg>
